<mxfile host="app.diagrams.net" modified="2020-07-22T05:17:40.855Z" agent="5.0 (Windows NT 10.0; Win64; x64) AppleWebKit/537.36 (KHTML, like Gecko) Chrome/84.0.4147.89 Safari/537.36" etag="cUaUZO4DgUoZ2hp4lQ5u" version="13.4.8" type="github">
  <diagram name="Page-1" id="e7e014a7-5840-1c2e-5031-d8a46d1fe8dd">
    <mxGraphModel dx="1038" dy="580" grid="1" gridSize="10" guides="1" tooltips="1" connect="1" arrows="1" fold="1" page="1" pageScale="1" pageWidth="1169" pageHeight="826" background="#ffffff" math="0" shadow="0">
      <root>
        <mxCell id="0" />
        <mxCell id="1" parent="0" />
        <mxCell id="0EXw85Wq1CaKPnBQkr0--65" value="선별장&lt;br&gt;SYSTEM" style="shape=umlFrame;whiteSpace=wrap;html=1;width=80;height=30;" vertex="1" parent="1">
          <mxGeometry x="130" y="10" width="840" height="500" as="geometry" />
        </mxCell>
        <mxCell id="0EXw85Wq1CaKPnBQkr0--41" value="관리자&lt;br&gt;Manager" style="shape=umlActor;verticalLabelPosition=bottom;verticalAlign=top;html=1;outlineConnect=0;" vertex="1" parent="1">
          <mxGeometry x="70" y="140" width="30" height="60" as="geometry" />
        </mxCell>
        <object label="농장주&lt;br&gt;Farmer" 농장주="" id="0EXw85Wq1CaKPnBQkr0--47">
          <mxCell style="shape=umlActor;verticalLabelPosition=bottom;verticalAlign=top;html=1;" vertex="1" parent="1">
            <mxGeometry x="70" y="310" width="30" height="60" as="geometry" />
          </mxCell>
        </object>
        <mxCell id="0EXw85Wq1CaKPnBQkr0--48" value="RGB-HSV로 변환" style="ellipse;whiteSpace=wrap;html=1;" vertex="1" parent="1">
          <mxGeometry x="390" y="190" width="140" height="70" as="geometry" />
        </mxCell>
        <mxCell id="0EXw85Wq1CaKPnBQkr0--62" value="" style="edgeStyle=orthogonalEdgeStyle;rounded=0;orthogonalLoop=1;jettySize=auto;html=1;startArrow=none;startFill=0;endArrow=block;endFill=0;" edge="1" parent="1" source="0EXw85Wq1CaKPnBQkr0--51" target="0EXw85Wq1CaKPnBQkr0--41">
          <mxGeometry relative="1" as="geometry" />
        </mxCell>
        <mxCell id="0EXw85Wq1CaKPnBQkr0--51" value="관리자 로그인확인" style="ellipse;whiteSpace=wrap;html=1;" vertex="1" parent="1">
          <mxGeometry x="210" y="185" width="140" height="70" as="geometry" />
        </mxCell>
        <mxCell id="0EXw85Wq1CaKPnBQkr0--52" value="스포이드 기능&lt;br&gt;색 검출하기" style="ellipse;whiteSpace=wrap;html=1;" vertex="1" parent="1">
          <mxGeometry x="390" y="110" width="140" height="70" as="geometry" />
        </mxCell>
        <mxCell id="0EXw85Wq1CaKPnBQkr0--69" style="edgeStyle=orthogonalEdgeStyle;rounded=0;orthogonalLoop=1;jettySize=auto;html=1;entryX=0.309;entryY=0.974;entryDx=0;entryDy=0;entryPerimeter=0;startArrow=none;startFill=0;endArrow=open;endFill=0;" edge="1" parent="1" source="0EXw85Wq1CaKPnBQkr0--53" target="0EXw85Wq1CaKPnBQkr0--56">
          <mxGeometry relative="1" as="geometry" />
        </mxCell>
        <mxCell id="0EXw85Wq1CaKPnBQkr0--80" style="edgeStyle=orthogonalEdgeStyle;rounded=0;orthogonalLoop=1;jettySize=auto;html=1;startArrow=none;startFill=0;endArrow=block;endFill=0;" edge="1" parent="1" source="0EXw85Wq1CaKPnBQkr0--53">
          <mxGeometry relative="1" as="geometry">
            <mxPoint x="110" y="400" as="targetPoint" />
          </mxGeometry>
        </mxCell>
        <mxCell id="0EXw85Wq1CaKPnBQkr0--53" value="농장주 로그인확인" style="ellipse;whiteSpace=wrap;html=1;" vertex="1" parent="1">
          <mxGeometry x="210" y="408" width="140" height="70" as="geometry" />
        </mxCell>
        <mxCell id="0EXw85Wq1CaKPnBQkr0--54" value="정상블루베리 색 &lt;br&gt;검출하기" style="ellipse;whiteSpace=wrap;html=1;" vertex="1" parent="1">
          <mxGeometry x="390" y="270" width="140" height="70" as="geometry" />
        </mxCell>
        <mxCell id="0EXw85Wq1CaKPnBQkr0--56" value="출하량 나타내기" style="ellipse;whiteSpace=wrap;html=1;" vertex="1" parent="1">
          <mxGeometry x="590" y="140" width="140" height="70" as="geometry" />
        </mxCell>
        <mxCell id="0EXw85Wq1CaKPnBQkr0--59" value="" style="edgeStyle=orthogonalEdgeStyle;rounded=0;orthogonalLoop=1;jettySize=auto;html=1;dashed=1;dashPattern=1 2;endArrow=open;endFill=0;entryX=0.777;entryY=0.911;entryDx=0;entryDy=0;entryPerimeter=0;" edge="1" parent="1" source="0EXw85Wq1CaKPnBQkr0--57" target="0EXw85Wq1CaKPnBQkr0--56">
          <mxGeometry relative="1" as="geometry">
            <mxPoint x="750" y="225" as="targetPoint" />
            <Array as="points">
              <mxPoint x="790" y="204" />
              <mxPoint x="790" y="204" />
            </Array>
          </mxGeometry>
        </mxCell>
        <mxCell id="0EXw85Wq1CaKPnBQkr0--57" value="불량품 검출하기" style="ellipse;whiteSpace=wrap;html=1;" vertex="1" parent="1">
          <mxGeometry x="810" y="170" width="140" height="70" as="geometry" />
        </mxCell>
        <mxCell id="0EXw85Wq1CaKPnBQkr0--60" style="edgeStyle=orthogonalEdgeStyle;rounded=0;orthogonalLoop=1;jettySize=auto;html=1;entryX=0.571;entryY=1;entryDx=0;entryDy=0;entryPerimeter=0;startArrow=none;startFill=0;dashed=1;dashPattern=1 2;endArrow=open;endFill=0;" edge="1" parent="1" source="0EXw85Wq1CaKPnBQkr0--58" target="0EXw85Wq1CaKPnBQkr0--56">
          <mxGeometry relative="1" as="geometry" />
        </mxCell>
        <mxCell id="0EXw85Wq1CaKPnBQkr0--58" value="머신고장률 예측하기" style="ellipse;whiteSpace=wrap;html=1;" vertex="1" parent="1">
          <mxGeometry x="810" y="270" width="140" height="70" as="geometry" />
        </mxCell>
        <mxCell id="0EXw85Wq1CaKPnBQkr0--61" value="녹색블루베리 색&lt;br&gt;검출하기" style="ellipse;whiteSpace=wrap;html=1;" vertex="1" parent="1">
          <mxGeometry x="400" y="360" width="140" height="70" as="geometry" />
        </mxCell>
        <mxCell id="0EXw85Wq1CaKPnBQkr0--67" style="edgeStyle=orthogonalEdgeStyle;rounded=0;orthogonalLoop=1;jettySize=auto;html=1;startArrow=none;startFill=0;endArrow=open;endFill=0;dashed=1;dashPattern=1 2;" edge="1" parent="1" source="0EXw85Wq1CaKPnBQkr0--66" target="0EXw85Wq1CaKPnBQkr0--56">
          <mxGeometry relative="1" as="geometry" />
        </mxCell>
        <mxCell id="0EXw85Wq1CaKPnBQkr0--66" value="출하량 나타내기" style="ellipse;whiteSpace=wrap;html=1;" vertex="1" parent="1">
          <mxGeometry x="810" y="370" width="140" height="70" as="geometry" />
        </mxCell>
        <mxCell id="0EXw85Wq1CaKPnBQkr0--70" value="파일처리" style="shape=note;whiteSpace=wrap;html=1;size=28;verticalAlign=top;align=left;spacingTop=-6;" vertex="1" parent="1">
          <mxGeometry x="210" y="30" width="100" height="70" as="geometry" />
        </mxCell>
        <mxCell id="0EXw85Wq1CaKPnBQkr0--71" value="영상처리" style="shape=note;whiteSpace=wrap;html=1;size=28;verticalAlign=top;align=left;spacingTop=-6;" vertex="1" parent="1">
          <mxGeometry x="490" y="30" width="100" height="70" as="geometry" />
        </mxCell>
        <mxCell id="0EXw85Wq1CaKPnBQkr0--74" style="edgeStyle=orthogonalEdgeStyle;rounded=0;orthogonalLoop=1;jettySize=auto;html=1;startArrow=none;startFill=0;endArrow=open;endFill=0;" edge="1" parent="1" source="0EXw85Wq1CaKPnBQkr0--72" target="0EXw85Wq1CaKPnBQkr0--56">
          <mxGeometry relative="1" as="geometry" />
        </mxCell>
        <mxCell id="0EXw85Wq1CaKPnBQkr0--72" value="&amp;nbsp; 관리자&lt;br&gt;&amp;nbsp; 공장조회&lt;br&gt;&amp;nbsp; DB" style="shape=note;whiteSpace=wrap;html=1;size=28;verticalAlign=top;align=left;spacingTop=-6;" vertex="1" parent="1">
          <mxGeometry x="640" y="30" width="100" height="70" as="geometry" />
        </mxCell>
        <mxCell id="0EXw85Wq1CaKPnBQkr0--75" style="edgeStyle=orthogonalEdgeStyle;rounded=0;orthogonalLoop=1;jettySize=auto;html=1;entryX=1;entryY=0.5;entryDx=0;entryDy=0;startArrow=none;startFill=0;endArrow=open;endFill=0;" edge="1" parent="1" source="0EXw85Wq1CaKPnBQkr0--73" target="0EXw85Wq1CaKPnBQkr0--56">
          <mxGeometry relative="1" as="geometry" />
        </mxCell>
        <mxCell id="0EXw85Wq1CaKPnBQkr0--73" value="&amp;nbsp; 농장주&lt;br&gt;&amp;nbsp; 공장조회&lt;br&gt;&amp;nbsp; DB" style="shape=note;whiteSpace=wrap;html=1;size=28;verticalAlign=top;align=left;spacingTop=-6;" vertex="1" parent="1">
          <mxGeometry x="830" y="30" width="100" height="70" as="geometry" />
        </mxCell>
        <mxCell id="0EXw85Wq1CaKPnBQkr0--76" value="영상편집" style="shape=note;whiteSpace=wrap;html=1;size=28;verticalAlign=top;align=left;spacingTop=-6;" vertex="1" parent="1">
          <mxGeometry x="350" y="30" width="100" height="70" as="geometry" />
        </mxCell>
      </root>
    </mxGraphModel>
  </diagram>
</mxfile>
